<svg width="25" height="25" viewBox="0 0 25 25" fill="none" xmlns="http://www.w3.org/2000/svg">
<path d="M3.125 7.29165C3.125 6.73911 3.34449 6.20921 3.73519 5.81851C4.12589 5.42781 4.6558 5.20831 5.20833 5.20831H19.7917C20.3442 5.20831 20.8741 5.42781 21.2648 5.81851C21.6555 6.20921 21.875 6.73911 21.875 7.29165M3.125 7.29165V17.7083C3.125 18.2608 3.34449 18.7908 3.73519 19.1815C4.12589 19.5722 4.6558 19.7916 5.20833 19.7916H19.7917C20.3442 19.7916 20.8741 19.5722 21.2648 19.1815C21.6555 18.7908 21.875 18.2608 21.875 17.7083V7.29165M3.125 7.29165L12.5 13.5416L21.875 7.29165" stroke="#DBEEFF" stroke-width="2" stroke-linecap="round" stroke-linejoin="round"/>
</svg>
