<svg width="239" height="372" viewBox="0 0 239 372" fill="none" xmlns="http://www.w3.org/2000/svg">
<path d="M75.859 258.522L75.859 252.51C75.9769 231.88 77.8041 215.435 81.3406 203.175C84.9951 190.915 90.2999 181.012 97.2551 173.468C104.21 165.923 112.58 159.086 122.365 152.956C129.673 148.24 136.216 143.348 141.992 138.279C147.769 133.21 152.366 127.61 155.785 121.48C159.204 115.233 160.913 108.277 160.913 100.615C160.913 92.4807 158.968 85.3487 155.078 79.2187C151.187 73.0887 145.942 68.3733 139.34 65.0725C132.856 61.7717 125.665 60.1213 117.767 60.1213C110.105 60.1213 102.855 61.8306 96.0173 65.2493C89.18 68.5501 83.5804 73.5013 79.2187 80.1028C74.8569 86.5865 72.4993 94.6616 72.1456 104.328H0C0.589424 80.7512 6.2479 61.3002 16.9754 45.9751C27.703 30.5322 41.9081 19.0384 59.5908 11.4938C77.2736 3.83126 96.7835 0 118.121 0C141.58 0 162.328 3.8902 180.364 11.6706C198.4 19.3331 212.547 30.4733 222.803 45.091C233.059 59.7087 238.187 77.3325 238.187 97.9624C238.187 111.755 235.888 124.015 231.29 134.742C226.811 145.352 220.504 154.783 212.37 163.035C204.236 171.169 194.628 178.537 183.547 185.138C174.234 190.679 166.571 196.455 160.559 202.467C154.665 208.48 150.244 215.435 147.297 223.333C144.468 231.231 142.994 240.957 142.877 252.51V258.522H75.859ZM110.871 371.691C99.0823 371.691 89.0031 367.565 80.6333 359.313C72.3814 350.944 68.3143 340.923 68.4322 329.253C68.3143 317.7 72.3814 307.798 80.6333 299.546C89.0031 291.294 99.0823 287.168 110.871 287.168C122.07 287.168 131.913 291.294 140.401 299.546C148.889 307.798 153.192 317.7 153.309 329.253C153.192 337.033 151.129 344.165 147.12 350.649C143.23 357.015 138.102 362.143 131.736 366.033C125.371 369.805 118.415 371.691 110.871 371.691Z" fill="url(#paint0_linear_830_1586)"/>
<defs>
<linearGradient id="paint0_linear_830_1586" x1="214.967" y1="140.104" x2="43.7334" y2="168.592" gradientUnits="userSpaceOnUse">
<stop stop-color="#0084FF"/>
<stop offset="1" stop-color="#004DA9"/>
</linearGradient>
</defs>
</svg>
