<svg width="54" height="55" viewBox="0 0 54 55" fill="none" xmlns="http://www.w3.org/2000/svg">
<rect x="1" y="1.80002" width="52" height="52" rx="13" fill="#DBEEFF" stroke="#00A8F3" stroke-width="2"/>
<path d="M43.488 53.3159C41.772 53.9139 39.796 54.2 37.638 54.2H15.85C13.692 54.2 11.716 53.9139 10 53.3159C10.91 46.4519 18.086 41.1219 26.744 41.1219C35.402 41.1219 42.578 46.4519 43.488 53.3159Z" fill="#00A8F3"/>
<path d="M36.052 27.1081C36.052 32.2561 31.892 36.442 26.744 36.442C21.596 36.442 17.436 32.2561 17.436 27.1081C17.436 21.9601 21.596 17.8 26.744 17.8C31.892 17.8 36.052 21.9601 36.052 27.1081Z" fill="#00A8F3"/>
</svg>
