<svg width="32" height="44" viewBox="0 0 32 44" fill="none" xmlns="http://www.w3.org/2000/svg">
<path d="M31.5035 1.80302V11.593C31.5035 12.1307 31.0691 12.5679 30.5324 12.5679H12.6152V16.1027H30.5324C31.068 16.1027 31.5035 16.5388 31.5035 17.0775V26.8985C31.5035 27.4362 31.0691 27.8734 30.5324 27.8734H12.6152V31.3783H30.5324C31.068 31.3783 31.5035 31.8144 31.5035 32.3531V42.1741C31.5035 42.7118 31.0691 43.149 30.5324 43.149H1.8221C1.28655 43.149 0.851074 42.7128 0.851074 42.1741V1.80302C0.851074 1.26536 1.28548 0.828186 1.8221 0.828186H30.5324C31.068 0.828186 31.5035 1.2643 31.5035 1.80302Z" fill="#DBEEFF"/>
</svg>
