<svg width="40" height="51" viewBox="0 0 40 51" fill="none" xmlns="http://www.w3.org/2000/svg">
<path d="M35.2614 7.06774C31.7727 2.65777 27.4313 0.386469 22.2385 0.348572H1.56739C0.975493 0.348572 0.49646 0.87029 0.49646 1.51328V49.2764C0.49646 49.9194 0.975493 50.4411 1.56739 50.4411H12.2353C12.8271 50.4411 13.3062 49.9194 13.3062 49.2764V38.7801C13.3062 38.1371 13.7852 37.6154 14.3771 37.6154H20.8553C26.2538 37.6154 31.6674 35.4805 35.1824 31.0238C38.2171 27.176 39.5376 22.5437 39.1451 17.1623C38.8755 13.4648 37.4848 9.87845 35.2601 7.06648L35.2614 7.06774ZM26.447 19.5814C23.9678 22.6523 19.9123 24.4057 13.6448 24.4752C13.266 24.479 13.024 24.0507 13.2548 23.7652C14.2881 22.4868 15.1772 21.1289 15.2148 19.2972C15.1772 17.4655 14.2881 16.1075 13.2548 14.8291C13.024 14.5436 13.266 14.1141 13.6448 14.1179C19.9123 14.1886 23.9678 15.942 26.447 19.0129C26.5786 19.1759 26.5786 19.4184 26.447 19.5814Z" fill="#252525"/>
</svg>
