<svg width="34" height="43" viewBox="0 0 34 43" fill="none" xmlns="http://www.w3.org/2000/svg">
<path d="M29.8087 6.21115C26.8466 2.47964 23.1605 0.557763 18.7515 0.525696H1.20054C0.697986 0.525696 0.29126 0.96715 0.29126 1.51122V41.9261C0.29126 42.4702 0.697986 42.9117 1.20054 42.9117H10.2582C10.7607 42.9117 11.1674 42.4702 11.1674 41.9261V33.0447C11.1674 32.5006 11.5742 32.0592 12.0767 32.0592H17.5771C22.1607 32.0592 26.7572 30.2527 29.7416 26.4817C32.3182 23.2258 33.4394 19.3062 33.1061 14.7527C32.8772 11.624 31.6964 8.58944 29.8076 6.21008L29.8087 6.21115ZM22.3247 16.7996C20.2197 19.3981 16.7764 20.8817 11.4549 20.9405C11.1334 20.9437 10.9279 20.5814 11.1238 20.3398C12.0011 19.2581 12.756 18.109 12.788 16.5591C12.756 15.0092 12.0011 13.8602 11.1238 12.7784C10.9279 12.5369 11.1334 12.1734 11.4549 12.1767C16.7764 12.2365 20.2197 13.7201 22.3247 16.3186C22.4365 16.4565 22.4365 16.6617 22.3247 16.7996Z" fill="#DBEEFF"/>
</svg>
