<svg width="29" height="43" viewBox="0 0 29 43" fill="none" xmlns="http://www.w3.org/2000/svg">
<path d="M16.0042 26.9584C15.327 27.1722 14.6488 26.6217 14.6488 25.8564V17.5821C14.6488 16.8167 15.3259 16.2662 16.0042 16.48L27.6938 20.1699C28.256 20.3473 28.8192 19.8898 28.8192 19.2549V1.50267C28.8192 0.962874 28.4157 0.525696 27.9185 0.525696H14.7883C6.88586 0.525696 0.480469 7.46817 0.480469 16.0332V27.4041C0.480469 35.9692 6.88586 42.9117 14.7883 42.9117H27.9185C28.4157 42.9117 28.8192 42.4745 28.8192 41.9347V24.1814C28.8192 23.5465 28.257 23.089 27.6938 23.2664L16.0042 26.9563V26.9584Z" fill="#DBEEFF"/>
</svg>
