<svg width="27" height="43" viewBox="0 0 27 43" fill="none" xmlns="http://www.w3.org/2000/svg">
<path d="M13.2402 12.0297C12.3853 12.0297 11.9455 13.0579 12.5386 13.6768C14.585 15.8135 18.6331 20.025 24.6637 26.3122C25.8881 28.1219 26.5014 30.0202 26.5014 32.0351C26.5014 34.8698 25.508 37.3518 23.5532 39.4522C21.5696 41.5568 19.2059 42.6075 16.46 42.6075L1.68477 42.3157C1.14922 42.3157 0.713745 41.8796 0.713745 41.3409V31.5199C0.713745 30.9822 1.14815 30.5451 1.68477 30.5451L10.8223 30.8369C11.6783 30.8369 12.1148 29.8065 11.5218 29.1865L2.81658 16.3202C1.56127 14.8024 0.947993 12.8741 0.947993 10.5663C0.947993 7.70597 1.9105 5.22293 3.86853 3.14927C5.82443 1.04676 8.18812 -0.00396729 10.9617 -0.00396729L24.949 0.287841C25.4846 0.287841 25.9201 0.72395 25.9201 1.26267V11.0527C25.9201 11.5903 25.4857 12.0275 24.949 12.0275H13.2413L13.2402 12.0297Z" fill="#DBEEFF"/>
</svg>
