<svg width="32" height="52" viewBox="0 0 32 52" fill="none" xmlns="http://www.w3.org/2000/svg">
<path d="M15.4808 15.1259C14.4739 15.1259 13.956 16.3412 14.6544 17.0726C17.0646 19.5978 21.8324 24.575 28.9351 32.0054C30.3772 34.144 31.0995 36.3875 31.0995 38.7687C31.0995 42.1189 29.9295 45.0521 27.6272 47.5344C25.2909 50.0217 22.507 51.2634 19.2729 51.2634L1.87104 50.9186C1.24028 50.9186 0.727386 50.4032 0.727386 49.7665V38.1599C0.727386 37.5244 1.23902 37.0078 1.87104 37.0078L12.633 37.3526C13.6412 37.3526 14.1553 36.1349 13.4568 35.4022L3.20406 20.1966C1.72558 18.4028 1.00328 16.1239 1.00328 13.3966C1.00328 10.0161 2.13689 7.08163 4.44302 4.63095C6.74664 2.14615 9.53054 0.904388 12.7972 0.904388L29.2712 1.24925C29.9019 1.24925 30.4148 1.76465 30.4148 2.40133V13.9713C30.4148 14.6067 29.9032 15.1234 29.2712 15.1234H15.4821L15.4808 15.1259Z" fill="#252525"/>
</svg>
