<svg width="40" height="51" viewBox="0 0 40 51" fill="none" xmlns="http://www.w3.org/2000/svg">
<path d="M35.5369 7.28501C32.0482 2.87378 27.7069 0.602472 22.5127 0.564575H1.84164C1.24974 0.564575 0.770706 1.08629 0.770706 1.72928V49.4924C0.770706 50.1354 1.24974 50.6571 1.84164 50.6571H12.5095C13.1014 50.6571 13.5804 50.1354 13.5804 49.4924V38.9961C13.5804 38.3531 14.0595 37.8314 14.6514 37.8314H21.1296C26.5281 37.8314 31.9429 35.6965 35.4566 31.2398C38.4913 27.3907 39.8118 22.7572 39.4193 17.3745C39.1497 13.6795 37.759 10.0945 35.5369 7.28501ZM22.0575 24.6912H14.2626C13.8074 24.6912 13.4387 24.2907 13.4387 23.7956V15.2283C13.4387 14.7343 13.8074 14.3326 14.2626 14.3326H22.0575C24.6872 14.3326 26.819 16.6519 26.819 19.5119C26.819 22.3719 24.6872 24.6912 22.0575 24.6912Z" fill="#252525"/>
</svg>
