<svg width="29" height="44" viewBox="0 0 29 44" fill="none" xmlns="http://www.w3.org/2000/svg">
<path d="M28.9755 1.69722V11.4787C28.9755 12.0249 28.5666 12.4674 28.063 12.4674H11.5129V16.0065H28.063C28.5666 16.0065 28.9755 16.449 28.9755 16.9953V26.8066C28.9755 27.3528 28.5666 27.7954 28.063 27.7954H11.5129V31.3056H28.063C28.5666 31.3056 28.9755 31.7481 28.9755 32.2943V42.1057C28.9755 42.6519 28.5666 43.0945 28.063 43.0945H1.54919C1.04557 43.0945 0.636719 42.6519 0.636719 42.1057V1.69722C0.636719 1.15102 1.04557 0.708496 1.54919 0.708496H28.063C28.5666 0.708496 28.9755 1.15102 28.9755 1.69722Z" fill="#DBEEFF"/>
</svg>
