<svg width="34" height="44" viewBox="0 0 34 44" fill="none" xmlns="http://www.w3.org/2000/svg">
<path d="M29.9671 6.39502C27.005 2.66244 23.3189 0.740563 18.9088 0.708496H1.35789C0.855338 0.708496 0.448608 1.14995 0.448608 1.69402V42.1089C0.448608 42.653 0.855338 43.0945 1.35789 43.0945H10.4155C10.9181 43.0945 11.3248 42.653 11.3248 42.1089V33.2275C11.3248 32.6834 11.7315 32.242 12.2341 32.242H17.7344C22.3181 32.242 26.9156 30.4355 29.8989 26.6645C32.4756 23.4076 33.5967 19.4868 33.2635 14.9323C33.0346 11.8058 31.8538 8.77224 29.9671 6.39502ZM18.5223 21.1233H11.904C11.5175 21.1233 11.2045 20.7845 11.2045 20.3655V13.1162C11.2045 12.6983 11.5175 12.3584 11.904 12.3584H18.5223C20.7551 12.3584 22.5651 14.3209 22.5651 16.7409C22.5651 19.1608 20.7551 21.1233 18.5223 21.1233Z" fill="#DBEEFF"/>
</svg>
