<svg width="37" height="51" viewBox="0 0 37 51" fill="none" xmlns="http://www.w3.org/2000/svg">
<path d="M36.1464 1.85813V13.4281C36.1464 14.0636 35.6347 14.5802 35.0027 14.5802H13.9002V18.7578H35.0027C35.6335 18.7578 36.1464 19.2732 36.1464 19.9098V31.5165C36.1464 32.1519 35.6347 32.6685 35.0027 32.6685H13.9002V36.8107H35.0027C35.6335 36.8107 36.1464 37.3261 36.1464 37.9628V49.5694C36.1464 50.2048 35.6347 50.7215 35.0027 50.7215H1.18833C0.557567 50.7215 0.0446777 50.2061 0.0446777 49.5694V1.85813C0.0446777 1.22272 0.556313 0.706055 1.18833 0.706055H35.0027C35.6335 0.706055 36.1464 1.22146 36.1464 1.85813Z" fill="#252525"/>
</svg>
