<svg width="34" height="51" viewBox="0 0 34 51" fill="none" xmlns="http://www.w3.org/2000/svg">
<path d="M33.6801 1.73307V13.293C33.6801 13.9385 33.1986 14.4615 32.6054 14.4615H13.1131V18.6441H32.6054C33.1986 18.6441 33.6801 19.167 33.6801 19.8126V31.4078C33.6801 32.0533 33.1986 32.5763 32.6054 32.5763H13.1131V36.7248H32.6054C33.1986 36.7248 33.6801 37.2478 33.6801 37.8933V49.4886C33.6801 50.1341 33.1986 50.6571 32.6054 50.6571H1.37805C0.784901 50.6571 0.30336 50.1341 0.30336 49.4886V1.73307C0.30336 1.08756 0.784901 0.564575 1.37805 0.564575H32.6054C33.1986 0.564575 33.6801 1.08756 33.6801 1.73307Z" fill="#252525"/>
</svg>
