<svg width="34" height="51" viewBox="0 0 34 51" fill="none" xmlns="http://www.w3.org/2000/svg">
<path d="M18.3139 31.5872C17.5163 31.8399 16.7175 31.1893 16.7175 30.2848V20.5061C16.7175 19.6016 17.5151 18.951 18.3139 19.2037L32.0816 23.5644C32.7438 23.7741 33.4071 23.2334 33.4071 22.4831V1.50317C33.4071 0.865237 32.9319 0.348572 32.3462 0.348572H16.8818C7.57452 0.348572 0.0303955 8.55331 0.0303955 18.6757V32.114C0.0303955 42.2363 7.57452 50.4411 16.8818 50.4411H32.3462C32.9319 50.4411 33.4071 49.9244 33.4071 49.2865V28.3053C33.4071 27.555 32.745 27.0143 32.0816 27.224L18.3139 31.5847V31.5872Z" fill="#252525"/>
</svg>
